<?xml version="1.0" encoding="UTF-8"?>
<svg id="uuid-34f88ec7-4987-4665-a08d-7eda3d03cd6f" data-name="Layer 1" xmlns="http://www.w3.org/2000/svg" viewBox="0 0 1126.83 166.75">
  <g>
    <path d="M84.65,85.87c-4.11-2.92-8.64-5.3-13.59-7.15-4.95-1.85-9.92-3.4-14.93-4.65-5.01-1.25-9.56-2.59-13.68-4.02s-7.42-3.13-9.92-5.09c-2.5-1.97-3.75-4.62-3.75-7.96s1.46-6.23,4.38-8.67c2.92-2.44,7.78-3.66,14.57-3.66,6.32,0,11.68,1.46,16.09,4.38,4.41,2.92,7.69,7.6,9.83,14.03l23.24-8.04c-3.34-10.49-9.09-18.5-17.25-24.04-8.16-5.54-18.09-8.31-29.76-8.31-9.65,0-17.94,1.58-24.85,4.74-6.91,3.16-12.16,7.42-15.73,12.78s-5.36,11.5-5.36,18.41c0,6.44,1.22,11.77,3.66,16,2.44,4.23,5.75,7.69,9.92,10.37,4.17,2.68,8.7,4.86,13.59,6.53,4.89,1.67,9.77,3.19,14.66,4.56,4.89,1.37,9.41,2.8,13.59,4.29,4.17,1.49,7.51,3.43,10.01,5.81,2.5,2.39,3.75,5.42,3.75,9.12,0,3.93-1.79,7.12-5.36,9.56-3.58,2.44-8.88,3.66-15.91,3.66s-12.51-1.64-17.16-4.92c-4.65-3.28-8.16-8.49-10.55-15.64L0,115.99c3.69,11.44,9.8,20.08,18.32,25.92,8.52,5.84,19.22,8.76,32.09,8.76,10.01,0,18.56-1.58,25.65-4.74,7.09-3.16,12.57-7.48,16.45-12.96,3.87-5.48,5.81-11.8,5.81-18.95s-1.25-12.45-3.75-16.98c-2.5-4.53-5.81-8.25-9.92-11.17Z" style="fill: #2f2f2f; stroke-width: 0px;"/>
    <path d="M187.72,30.1c-7.09-3.4-15.7-5.09-25.83-5.09h-48.45v123.35h24.85v-39.69h23.6c10.13,0,18.74-1.7,25.83-5.09,7.09-3.4,12.48-8.25,16.18-14.57,3.69-6.32,5.54-13.7,5.54-22.17s-1.85-16-5.54-22.26c-3.7-6.26-9.09-11.08-16.18-14.48ZM178.43,80.87c-3.75,3.16-9.8,4.74-18.14,4.74h-21.99v-37.54h21.99c8.34,0,14.39,1.58,18.14,4.74,3.75,3.16,5.63,7.84,5.63,14.03s-1.88,10.88-5.63,14.03Z" style="fill: #2f2f2f; stroke-width: 0px;"/>
    <rect x="220.47" y="25" width="24.85" height="123.35" style="fill: #2f2f2f; stroke-width: 0px;"/>
    <path d="M348.34,94.18c7.92-7.27,11.89-16.98,11.89-29.14s-3.96-22.02-11.89-29.23c-7.93-7.21-19.04-10.82-33.34-10.82h-48.98v123.35h24.85v-43.26h17.86l26.48,43.26h28.07l-29.86-45.79c5.84-1.81,10.82-4.6,14.94-8.38ZM290.87,48.06h22.35c7.51,0,12.99,1.4,16.45,4.2,3.46,2.8,5.18,7.06,5.18,12.78s-1.73,9.83-5.18,12.69c-3.46,2.86-8.94,4.29-16.45,4.29h-22.35v-33.97Z" style="fill: #2f2f2f; stroke-width: 0px;"/>
    <rect x="376.19" y="25" width="24.85" height="123.35" style="fill: #2f2f2f; stroke-width: 0px;"/>
    <polygon points="510.84 25 474.01 25 449.34 25 412.34 25 412.34 48.06 449.34 48.06 449.34 148.35 474.01 148.35 474.01 48.06 510.84 48.06 510.84 25" style="fill: #2f2f2f; stroke-width: 0px;"/>
  </g>
  <g>
    <polygon points="733.59 25 708.75 25 708.75 148.35 719.83 148.35 733.59 148.35 788.66 148.35 788.66 125.29 733.59 125.29 733.59 25" style="fill: #00bbf9; stroke-width: 0px;"/>
    <path d="M859.59,25h-23.06l-40.58,123.35h25.74l9.28-30.21h47.18l9.5,30.21h26.28l-40.58-123.35h-13.77ZM837.73,96.15l16.56-53.9,16.95,53.9h-33.51Z" style="fill: #00bbf9; stroke-width: 0px;"/>
    <path d="M1008.41,89.72c-3.53-3.11-7.84-5.44-12.93-6.99,3.16-1.23,5.96-2.77,8.37-4.63,7.09-5.48,10.64-12.51,10.64-21.09,0-6.32-1.61-11.89-4.83-16.71-3.22-4.83-7.9-8.58-14.03-11.26-6.14-2.68-13.56-4.02-22.26-4.02h-50.23v123.35h53.27c13.59,0,24.07-3.25,31.46-9.74,7.39-6.49,11.08-14.87,11.08-25.12,0-9.65-3.52-17.58-10.55-23.78ZM971.05,47.7c6.32,0,10.93,1.22,13.85,3.66,2.92,2.44,4.38,5.75,4.38,9.92s-1.46,7.54-4.38,10.1c-2.92,2.56-7.54,3.84-13.85,3.84h-23.06v-27.53h23.06ZM989.11,121.63c-2.98,2.68-7.93,4.02-14.84,4.02h-26.28v-30.21h26.28c6.91,0,11.86,1.34,14.84,4.02,2.98,2.68,4.47,6.41,4.47,11.17s-1.49,8.31-4.47,10.99Z" style="fill: #00bbf9; stroke-width: 0px;"/>
    <path d="M1123.07,97.04c-2.5-4.53-5.81-8.25-9.92-11.17-4.11-2.92-8.64-5.3-13.59-7.15-4.95-1.85-9.92-3.4-14.93-4.65-5.01-1.25-9.56-2.59-13.68-4.02s-7.42-3.13-9.92-5.09c-2.5-1.97-3.75-4.62-3.75-7.96s1.46-6.23,4.38-8.67c2.92-2.44,7.78-3.66,14.57-3.66,6.32,0,11.68,1.46,16.09,4.38,4.41,2.92,7.69,7.6,9.83,14.03l23.24-8.04c-3.34-10.49-9.09-18.5-17.25-24.04-8.16-5.54-18.09-8.31-29.76-8.31-9.65,0-17.94,1.58-24.85,4.74-6.91,3.16-12.16,7.42-15.73,12.78-3.58,5.36-5.36,11.5-5.36,18.41,0,6.44,1.22,11.77,3.66,16,2.44,4.23,5.75,7.69,9.92,10.37,4.17,2.68,8.7,4.86,13.59,6.53,4.89,1.67,9.77,3.19,14.66,4.56,4.89,1.37,9.41,2.8,13.59,4.29,4.17,1.49,7.51,3.43,10.01,5.81,2.5,2.39,3.75,5.42,3.75,9.12,0,3.93-1.79,7.12-5.36,9.56-3.58,2.44-8.88,3.66-15.91,3.66s-12.51-1.64-17.16-4.92c-4.65-3.28-8.16-8.49-10.55-15.64l-24.13,8.04c3.69,11.44,9.8,20.08,18.32,25.92,8.52,5.84,19.22,8.76,32.09,8.76,10.01,0,18.56-1.58,25.65-4.74,7.09-3.16,12.57-7.48,16.45-12.96,3.87-5.48,5.81-11.8,5.81-18.95s-1.25-12.45-3.75-16.98Z" style="fill: #00bbf9; stroke-width: 0px;"/>
  </g>
  <g>
    <g>
      <g>
        <path d="M564.87,129.96h29.68c32.72,0,59.25-26.52,59.25-59.25v-16.97c0-26.03-21.1-47.14-47.14-47.14h0c-29.87,0-53.9,24.03-53.9,53.67v57.58c0,6.69,5.42,12.11,12.11,12.11Z" style="fill: #fdfffc; stroke-width: 0px;"/>
        <path d="M594.56,136.56h-29.68c-10.32,0-18.72-8.4-18.72-18.72v-57.58c0-16.11,6.28-31.25,17.69-42.63,11.41-11.38,26.62-17.65,42.82-17.65,29.63,0,53.74,24.11,53.74,53.74v16.97c0,36.31-29.54,65.85-65.85,65.85ZM606.67,13.21c-12.68,0-24.57,4.9-33.49,13.79-8.9,8.88-13.81,20.69-13.81,33.27v57.58c0,3.03,2.47,5.5,5.5,5.5h29.68c29.02,0,52.64-23.61,52.64-52.64v-16.97c0-22.35-18.18-40.53-40.53-40.53Z" style="fill: #2f2f2f; stroke-width: 0px;"/>
      </g>
      <g>
        <path d="M596.61,45.08c-7.11,0-12.89,5.78-12.89,12.89s5.78,12.89,12.89,12.89,12.89-5.78,12.89-12.89-5.78-12.89-12.89-12.89Z" style="fill: #2f2f2f; stroke-width: 0px;"/>
        <path d="M627.85,45.08c-7.11,0-12.89,5.78-12.89,12.89s5.78,12.89,12.89,12.89,12.89-5.78,12.89-12.89-5.78-12.89-12.89-12.89Z" style="fill: #2f2f2f; stroke-width: 0px;"/>
      </g>
    </g>
    <ellipse cx="603.28" cy="156.05" rx="42.8" ry="10.7" style="fill: #2f2f2f; stroke-width: 0px;"/>
  </g>
</svg>