<?xml version="1.0" encoding="UTF-8"?>
<svg id="uuid-bc57e396-87b6-489e-9559-5dd83a2b876b" data-name="Layer 1" xmlns="http://www.w3.org/2000/svg" viewBox="0 0 1121.78 166.09">
  <g>
    <path d="M84.27,85.49c-4.09-2.91-8.6-5.28-13.53-7.12-4.92-1.84-9.88-3.38-14.86-4.63-4.98-1.25-9.52-2.58-13.61-4s-7.39-3.11-9.88-5.07c-2.49-1.96-3.74-4.6-3.74-7.92s1.45-6.2,4.36-8.63c2.91-2.43,7.74-3.65,14.5-3.65,6.29,0,11.63,1.45,16.02,4.36,4.39,2.91,7.65,7.56,9.79,13.97l23.14-8.01c-3.32-10.44-9.05-18.42-17.17-23.94-8.13-5.52-18.01-8.28-29.63-8.28-9.61,0-17.86,1.57-24.74,4.72-6.88,3.15-12.1,7.39-15.66,12.72s-5.34,11.45-5.34,18.33c0,6.41,1.22,11.72,3.65,15.93,2.43,4.21,5.72,7.65,9.88,10.32,4.15,2.67,8.66,4.84,13.53,6.5,4.86,1.66,9.73,3.18,14.59,4.54,4.86,1.37,9.37,2.79,13.53,4.27,4.15,1.48,7.47,3.41,9.97,5.78,2.49,2.37,3.74,5.4,3.74,9.08,0,3.92-1.78,7.09-5.34,9.52-3.56,2.43-8.84,3.65-15.84,3.65s-12.46-1.63-17.08-4.89c-4.63-3.26-8.13-8.45-10.5-15.57L0,115.47c3.68,11.39,9.76,19.99,18.24,25.81,8.48,5.81,19.13,8.72,31.95,8.72,9.97,0,18.48-1.57,25.54-4.72,7.06-3.14,12.52-7.44,16.37-12.9,3.85-5.46,5.78-11.75,5.78-18.86s-1.25-12.4-3.74-16.91c-2.49-4.51-5.78-8.21-9.88-11.12Z" style="fill: #fdfffc; stroke-width: 0px;"/>
    <path d="M186.88,29.96c-7.06-3.38-15.63-5.07-25.72-5.07h-48.23v122.8h24.74v-39.51h23.49c10.08,0,18.66-1.69,25.72-5.07,7.06-3.38,12.43-8.21,16.11-14.5,3.68-6.29,5.52-13.64,5.52-22.07s-1.84-15.93-5.52-22.16c-3.68-6.23-9.05-11.03-16.11-14.42ZM177.63,80.5c-3.74,3.14-9.76,4.72-18.06,4.72h-21.89v-37.37h21.89c8.3,0,14.33,1.57,18.06,4.72,3.74,3.15,5.61,7.8,5.61,13.97s-1.87,10.83-5.61,13.97Z" style="fill: #fdfffc; stroke-width: 0px;"/>
    <rect x="219.48" y="24.89" width="24.74" height="122.8" style="fill: #fdfffc; stroke-width: 0px;"/>
    <path d="M346.78,93.76c7.89-7.24,11.83-16.91,11.83-29.01s-3.95-21.92-11.83-29.1c-7.89-7.18-18.95-10.77-33.19-10.77h-48.76v122.8h24.74v-43.07h17.78l26.36,43.07h27.94l-29.73-45.58c5.81-1.81,10.77-4.58,14.87-8.34ZM289.57,47.85h22.25c7.47,0,12.93,1.4,16.37,4.18,3.44,2.79,5.16,7.03,5.16,12.72s-1.72,9.79-5.16,12.64c-3.44,2.85-8.9,4.27-16.37,4.27h-22.25v-33.81Z" style="fill: #fdfffc; stroke-width: 0px;"/>
    <rect x="374.51" y="24.89" width="24.74" height="122.8" style="fill: #fdfffc; stroke-width: 0px;"/>
    <polygon points="508.55 24.89 471.89 24.89 447.33 24.89 410.49 24.89 410.49 47.85 447.33 47.85 447.33 147.69 471.89 147.69 471.89 47.85 508.55 47.85 508.55 24.89" style="fill: #fdfffc; stroke-width: 0px;"/>
  </g>
  <g>
    <polygon points="730.31 24.89 705.57 24.89 705.57 147.69 716.6 147.69 730.31 147.69 785.12 147.69 785.12 124.73 730.31 124.73 730.31 24.89" style="fill: #00bbf9; stroke-width: 0px;"/>
    <path d="M855.74,24.89h-22.96l-40.4,122.8h25.63l9.24-30.08h46.97l9.46,30.08h26.16l-40.4-122.8h-13.7ZM833.98,95.72l16.49-53.66,16.87,53.66h-33.36Z" style="fill: #00bbf9; stroke-width: 0px;"/>
    <path d="M1003.9,89.31c-3.51-3.09-7.8-5.41-12.87-6.96,3.15-1.22,5.93-2.76,8.33-4.61,7.06-5.46,10.59-12.46,10.59-21,0-6.29-1.6-11.83-4.81-16.64-3.2-4.81-7.86-8.54-13.97-11.21-6.11-2.67-13.5-4-22.16-4h-50.01v122.8h53.03c13.53,0,23.96-3.23,31.32-9.7,7.36-6.47,11.03-14.8,11.03-25,0-9.61-3.5-17.5-10.5-23.67ZM966.7,47.49c6.29,0,10.88,1.22,13.79,3.65,2.91,2.43,4.36,5.73,4.36,9.88s-1.45,7.5-4.36,10.05c-2.91,2.55-7.51,3.83-13.79,3.83h-22.96v-27.41h22.96ZM984.68,121.08c-2.97,2.67-7.89,4-14.77,4h-26.16v-30.08h26.16c6.88,0,11.8,1.34,14.77,4,2.96,2.67,4.45,6.38,4.45,11.12s-1.48,8.28-4.45,10.95Z" style="fill: #00bbf9; stroke-width: 0px;"/>
    <path d="M1118.04,96.61c-2.49-4.51-5.78-8.21-9.88-11.12-4.09-2.91-8.6-5.28-13.53-7.12-4.92-1.84-9.88-3.38-14.86-4.63-4.98-1.25-9.52-2.58-13.61-4s-7.39-3.11-9.88-5.07c-2.49-1.96-3.74-4.6-3.74-7.92s1.45-6.2,4.36-8.63c2.91-2.43,7.74-3.65,14.5-3.65,6.29,0,11.63,1.45,16.02,4.36,4.39,2.91,7.65,7.56,9.79,13.97l23.14-8.01c-3.32-10.44-9.05-18.42-17.17-23.94-8.13-5.52-18.01-8.28-29.63-8.28-9.61,0-17.86,1.57-24.74,4.72-6.88,3.15-12.1,7.39-15.66,12.72-3.56,5.34-5.34,11.45-5.34,18.33,0,6.41,1.22,11.72,3.65,15.93,2.43,4.21,5.72,7.65,9.88,10.32,4.15,2.67,8.66,4.84,13.53,6.5,4.86,1.66,9.73,3.18,14.59,4.54,4.86,1.37,9.37,2.79,13.53,4.27,4.15,1.48,7.47,3.41,9.97,5.78,2.49,2.37,3.74,5.4,3.74,9.08,0,3.92-1.78,7.09-5.34,9.52-3.56,2.43-8.84,3.65-15.84,3.65s-12.46-1.63-17.08-4.89c-4.63-3.26-8.13-8.45-10.5-15.57l-24.03,8.01c3.68,11.39,9.76,19.99,18.24,25.81,8.48,5.81,19.13,8.72,31.95,8.72,9.97,0,18.48-1.57,25.54-4.72,7.06-3.14,12.52-7.44,16.37-12.9,3.85-5.46,5.78-11.75,5.78-18.86s-1.25-12.4-3.74-16.91Z" style="fill: #00bbf9; stroke-width: 0px;"/>
  </g>
  <path d="M562.34,129.37h29.55c32.57,0,58.98-26.41,58.98-58.98v-16.89c0-25.92-21.01-46.93-46.93-46.93h0c-29.74,0-53.66,23.92-53.66,53.43v57.32c0,6.66,5.4,12.05,12.05,12.05Z" style="fill: #231f20; stroke-width: 0px;"/>
  <path d="M591.89,135.95h-29.55c-10.27,0-18.63-8.36-18.63-18.63v-57.32c0-16.04,6.25-31.11,17.61-42.44,11.36-11.33,26.5-17.57,42.63-17.57,29.5,0,53.5,24,53.5,53.5v16.89c0,36.15-29.41,65.56-65.56,65.56ZM603.95,13.15c-12.62,0-24.46,4.88-33.34,13.73-8.86,8.84-13.74,20.6-13.74,33.12v57.32c0,3.02,2.46,5.48,5.48,5.48h29.55c28.89,0,52.4-23.51,52.4-52.4v-16.89c0-22.25-18.1-40.35-40.35-40.35Z" style="fill: #fdfffc; stroke-width: 0px;"/>
  <g>
    <path d="M593.94,44.88c-7.07,0-12.83,5.76-12.83,12.83s5.76,12.83,12.83,12.83,12.83-5.76,12.83-12.83-5.76-12.83-12.83-12.83Z" style="fill: #fdfffc; stroke-width: 0px;"/>
    <path d="M625.04,44.88c-7.07,0-12.83,5.76-12.83,12.83s5.76,12.83,12.83,12.83,12.83-5.76,12.83-12.83-5.76-12.83-12.83-12.83Z" style="fill: #fdfffc; stroke-width: 0px;"/>
  </g>
  <ellipse cx="600.58" cy="155.35" rx="42.98" ry="10.75" style="fill: #fdfffc; stroke-width: 0px;"/>
</svg>