<svg enable-background="new 0 0 193.1 23.4" viewBox="0 0 193.1 23.4" xmlns="http://www.w3.org/2000/svg" xmlns:xlink="http://www.w3.org/1999/xlink"><linearGradient id="a" gradientUnits="userSpaceOnUse" x1="96.5622" x2="96.5622" y1="1.0212" y2="22.3952"><stop offset="0" stop-color="#e1f6fd"/><stop offset=".2474" stop-color="#dbf4fd"/><stop offset=".5667" stop-color="#cbeffc"/><stop offset=".9239" stop-color="#b1e6fa"/><stop offset="1" stop-color="#aae4fa"/></linearGradient><linearGradient id="b" gradientUnits="userSpaceOnUse" x1="104.4327" x2="104.4327" y1="1.0212" y2="22.3952"><stop offset="0" stop-color="#52c7f5"/><stop offset=".1996" stop-color="#48beee"/><stop offset=".5351" stop-color="#2ea6dd"/><stop offset=".963" stop-color="#0480c0"/><stop offset="1" stop-color="#007cbd"/></linearGradient><path d="m13 16.7c0-.8-.3-1.4-.9-1.9-.6-.4-1.6-.9-3.1-1.4s-2.7-1-3.5-1.4c-2.4-1.3-3.5-3-3.5-5.2 0-1.1.3-2.1.9-3s1.5-1.6 2.7-2.1 2.5-.7 4-.7 2.8.3 4 .8 2.1 1.3 2.7 2.3 1 2.1 1 3.3h-4.3c0-1-.3-1.7-.9-2.2s-1.4-.8-2.5-.8c-1 0-1.9.2-2.4.7s-.9 1-.9 1.8c0 .7.3 1.2 1 1.7s1.7.9 3 1.3c2.4.7 4.2 1.6 5.3 2.7s1.7 2.4 1.7 4.1c0 1.8-.7 3.2-2 4.2-1.4 1-3.2 1.5-5.5 1.5-1.6 0-3.1-.3-4.4-.9s-2.3-1.4-3-2.4-1-2.2-1-3.5h4.3c-.1 2.3 1.3 3.4 4 3.4 1 0 1.8-.2 2.4-.6s.9-1 .9-1.7zm12-1.9v7.3h-4.3v-20.8h8.1c1.6 0 2.9.3 4.1.9s2.1 1.4 2.7 2.4c.6 1.1 1 2.2 1 3.6 0 2-.7 3.6-2.1 4.8s-3.3 1.8-5.8 1.8zm0-3.5h3.8c1.1 0 2-.3 2.6-.8s.9-1.3.9-2.3-.3-1.8-.9-2.5c-.6-.6-1.4-1-2.5-1h-3.9zm19.1 10.8h-4.3v-20.8h4.3zm12.2-7.6h-3.4v7.6h-4.3v-20.8h7.7c2.5 0 4.4.5 5.7 1.6s2 2.6 2 4.6c0 1.4-.3 2.6-.9 3.6s-1.5 1.7-2.8 2.3l4.5 8.5v.2h-4.6zm-3.4-3.5h3.5c1.1 0 1.9-.3 2.5-.8s.9-1.3.9-2.3-.3-1.8-.8-2.3c-.6-.6-1.4-.8-2.6-.8h-3.4v6.2zm19.5 11.1h-4.3v-20.8h4.3zm19.8-17.3h-6.4v17.3h-4.3v-17.3h-6.3v-3.5h16.9v3.5zm32.1 13.9h9.1v3.4h-13.4v-20.8h4.3zm24.7-.9h-7.5l-1.4 4.3h-4.6l7.7-20.8h4l7.8 20.8h-4.6zm-6.3-3.4h5.2l-2.6-7.8zm14.8 7.7v-20.8h7.3c2.5 0 4.4.5 5.7 1.5s2 2.4 2 4.2c0 1-.3 1.9-.8 2.7s-1.3 1.3-2.2 1.7c1.1.3 1.9.8 2.5 1.6s.9 1.8.9 3c0 2-.6 3.5-1.9 4.5s-3.1 1.6-5.5 1.6zm4.3-12.1h3.2c2.2 0 3.2-.9 3.2-2.6 0-.9-.3-1.6-.8-2s-1.4-.6-2.6-.6h-3zm0 3.1v5.6h3.7c1 0 1.8-.2 2.4-.7s.8-1.1.8-2c0-1.9-1-2.9-3-2.9zm25.7 3.6c0-.8-.3-1.4-.9-1.9-.6-.4-1.6-.9-3.1-1.4s-2.7-1-3.5-1.4c-2.4-1.3-3.5-3-3.5-5.2 0-1.1.3-2.1 1-3 .6-.9 1.5-1.6 2.7-2.1s2.5-.7 4-.7 2.8.3 4 .8 2.1 1.3 2.7 2.3 1 2.1 1 3.3h-4.3c0-1-.3-1.7-.9-2.2s-1.4-.8-2.5-.8c-1 0-1.9.2-2.4.7s-.9 1-.9 1.8c0 .7.3 1.2 1 1.7s1.7.9 3 1.3c2.4.7 4.2 1.6 5.3 2.7s1.7 2.4 1.7 4.1c0 1.8-.7 3.2-2 4.2s-3.2 1.5-5.5 1.5c-1.6 0-3.1-.3-4.4-.9s-2.3-1.4-3-2.4-1-2.2-1-3.5h4.3c0 2.3 1.4 3.4 4.1 3.4 1 0 1.8-.2 2.4-.6.4-.4.7-1 .7-1.7z" fill="url(#a)"/><path d="m105.5 3.5v7 .9l.6.7 6.4 7.8h-16.1l6.4-7.8.6-.7v-.9-7zm3.7-2.5h-9.5c-.3 0-.6.1-.8.3s-.3.5-.3.8.1.6.3.8.5.3.8.3h1.2v7.1l-6.6 8c-.6.8-.7 1.6-.3 2.5s1.1 1.4 2.2 1.4h16.6c1 0 1.7-.5 2.2-1.4.4-.9.3-1.7-.3-2.5l-6.6-8v-6.9h1.2c.3 0 .6-.1.8-.3s.3-.5.3-.8-.1-.6-.3-.8c-.3-.4-.6-.5-.9-.5z" fill="url(#b)"/><path d="m105.5 17.5c0-.2-.1-.4-.2-.5-.2-.1-.5-.3-.9-.4s-.8-.3-1-.4c-.7-.4-1-.9-1-1.5 0-.3.1-.6.3-.9s.4-.4.8-.6c.3-.1.7-.2 1.1-.2s.8.1 1.1.2c.3.2.6.4.8.6s.3.6.3 1h-1.2c0-.3-.1-.5-.3-.6-.2-.2-.4-.2-.7-.2s-.5.1-.7.2-.2.3-.2.5.1.4.3.5.5.3.9.4c.7.2 1.2.5 1.5.8s.5.7.5 1.2-.2.9-.6 1.2-.9.4-1.6.4c-.5 0-.9-.1-1.2-.3-.4-.2-.7-.4-.9-.7s-.3-.6-.3-1h1.2c0 .7.4 1 1.2 1 .3 0 .5-.1.7-.2 0-.1.1-.3.1-.5z" fill="#e1f6fd"/></svg>