<?xml version="1.0" encoding="utf-8"?>
<!-- Generator: Adobe Illustrator 28.2.0, SVG Export Plug-In . SVG Version: 6.00 Build 0)  -->
<svg version="1.1" id="Layer_1" xmlns="http://www.w3.org/2000/svg" xmlns:xlink="http://www.w3.org/1999/xlink" x="0px" y="0px"
	 viewBox="0 0 193.1 23.4" style="enable-background:new 0 0 193.1 23.4;" xml:space="preserve">
<style type="text/css">
	.st0{fill:#FFFFFF;}
</style>
<g>
	<path class="st0" d="M13,16.7c0-0.8-0.3-1.4-0.9-1.9c-0.6-0.4-1.6-0.9-3.1-1.4c-1.5-0.5-2.7-1-3.5-1.4c-2.4-1.3-3.5-3-3.5-5.2
		c0-1.1,0.3-2.1,0.9-3c0.6-0.9,1.5-1.6,2.7-2.1S8.1,1,9.6,1c1.5,0,2.8,0.3,4,0.8s2.1,1.3,2.7,2.3c0.6,1,1,2.1,1,3.3H13
		c0-1-0.3-1.7-0.9-2.2c-0.6-0.5-1.4-0.8-2.5-0.8c-1,0-1.9,0.2-2.4,0.7s-0.9,1-0.9,1.8c0,0.7,0.3,1.2,1,1.7c0.7,0.5,1.7,0.9,3,1.3
		c2.4,0.7,4.2,1.6,5.3,2.7c1.1,1.1,1.7,2.4,1.7,4.1c0,1.8-0.7,3.2-2,4.2c-1.4,1-3.2,1.5-5.5,1.5c-1.6,0-3.1-0.3-4.4-0.9
		c-1.3-0.6-2.3-1.4-3-2.4c-0.7-1-1-2.2-1-3.5h4.3C5.6,17.9,7,19,9.7,19c1,0,1.8-0.2,2.4-0.6C12.7,18,13,17.4,13,16.7z M25,14.8v7.3
		h-4.3V1.3h8.1c1.6,0,2.9,0.3,4.1,0.9c1.2,0.6,2.1,1.4,2.7,2.4c0.6,1.1,1,2.2,1,3.6c0,2-0.7,3.6-2.1,4.8c-1.4,1.2-3.3,1.8-5.8,1.8
		H25z M25,11.3h3.8c1.1,0,2-0.3,2.6-0.8c0.6-0.5,0.9-1.3,0.9-2.3c0-1-0.3-1.8-0.9-2.5c-0.6-0.6-1.4-1-2.5-1H25V11.3z M44.1,22.1
		h-4.3V1.3h4.3V22.1z M56.3,14.5h-3.4v7.6h-4.3V1.3h7.7c2.5,0,4.4,0.5,5.7,1.6s2,2.6,2,4.6c0,1.4-0.3,2.6-0.9,3.6s-1.5,1.7-2.8,2.3
		l4.5,8.5v0.2h-4.6L56.3,14.5z M52.9,11h3.5c1.1,0,1.9-0.3,2.5-0.8c0.6-0.5,0.9-1.3,0.9-2.3c0-1-0.3-1.8-0.8-2.3
		c-0.6-0.6-1.4-0.8-2.6-0.8h-3.4V11z M72.4,22.1h-4.3V1.3h4.3V22.1z M92.2,4.8h-6.4v17.3h-4.3V4.8h-6.3V1.3h16.9V4.8z M124.3,18.7
		h9.1v3.4H120V1.3h4.3V18.7z M149,17.8h-7.5l-1.4,4.3h-4.6l7.7-20.8h4l7.8,20.8h-4.6L149,17.8z M142.7,14.4h5.2l-2.6-7.8L142.7,14.4
		z M157.5,22.1V1.3h7.3c2.5,0,4.4,0.5,5.7,1.5s2,2.4,2,4.2c0,1-0.3,1.9-0.8,2.7s-1.3,1.3-2.2,1.7c1.1,0.3,1.9,0.8,2.5,1.6
		s0.9,1.8,0.9,3c0,2-0.6,3.5-1.9,4.5c-1.3,1-3.1,1.6-5.5,1.6H157.5z M161.8,10h3.2c2.2,0,3.2-0.9,3.2-2.6c0-0.9-0.3-1.6-0.8-2
		c-0.5-0.4-1.4-0.6-2.6-0.6h-3V10z M161.8,13.1v5.6h3.7c1,0,1.8-0.2,2.4-0.7c0.6-0.5,0.8-1.1,0.8-2c0-1.9-1-2.9-3-2.9H161.8z
		 M187.5,16.7c0-0.8-0.3-1.4-0.9-1.9c-0.6-0.4-1.6-0.9-3.1-1.4c-1.5-0.5-2.7-1-3.5-1.4c-2.4-1.3-3.5-3-3.5-5.2c0-1.1,0.3-2.1,1-3
		c0.6-0.9,1.5-1.6,2.7-2.1s2.5-0.7,4-0.7c1.5,0,2.8,0.3,4,0.8s2.1,1.3,2.7,2.3c0.6,1,1,2.1,1,3.3h-4.3c0-1-0.3-1.7-0.9-2.2
		c-0.6-0.5-1.4-0.8-2.5-0.8c-1,0-1.9,0.2-2.4,0.7s-0.9,1-0.9,1.8c0,0.7,0.3,1.2,1,1.7c0.7,0.5,1.7,0.9,3,1.3
		c2.4,0.7,4.2,1.6,5.3,2.7c1.1,1.1,1.7,2.4,1.7,4.1c0,1.8-0.7,3.2-2,4.2s-3.2,1.5-5.5,1.5c-1.6,0-3.1-0.3-4.4-0.9s-2.3-1.4-3-2.4
		c-0.7-1-1-2.2-1-3.5h4.3c0,2.3,1.4,3.4,4.1,3.4c1,0,1.8-0.2,2.4-0.6C187.2,18,187.5,17.4,187.5,16.7z"/>
	<path class="st0" d="M105.5,3.5v7v0.9l0.6,0.7l6.4,7.8H96.4l6.4-7.8l0.6-0.7v-0.9v-7H105.5 M109.2,1h-9.5c-0.3,0-0.6,0.1-0.8,0.3
		c-0.2,0.2-0.3,0.5-0.3,0.8c0,0.3,0.1,0.6,0.3,0.8c0.2,0.2,0.5,0.3,0.8,0.3h1.2v7.1l-6.6,8c-0.6,0.8-0.7,1.6-0.3,2.5
		c0.4,0.9,1.1,1.4,2.2,1.4h16.6c1,0,1.7-0.5,2.2-1.4c0.4-0.9,0.3-1.7-0.3-2.5l-6.6-8V3.4h1.2c0.3,0,0.6-0.1,0.8-0.3
		c0.2-0.2,0.3-0.5,0.3-0.8c0-0.3-0.1-0.6-0.3-0.8C109.8,1.1,109.5,1,109.2,1L109.2,1z"/>
	<g>
		<path class="st0" d="M105.5,17.5c0-0.2-0.1-0.4-0.2-0.5c-0.2-0.1-0.5-0.3-0.9-0.4c-0.4-0.1-0.8-0.3-1-0.4c-0.7-0.4-1-0.9-1-1.5
			c0-0.3,0.1-0.6,0.3-0.9c0.2-0.3,0.4-0.4,0.8-0.6c0.3-0.1,0.7-0.2,1.1-0.2c0.4,0,0.8,0.1,1.1,0.2c0.3,0.2,0.6,0.4,0.8,0.6
			s0.3,0.6,0.3,1h-1.2c0-0.3-0.1-0.5-0.3-0.6c-0.2-0.2-0.4-0.2-0.7-0.2c-0.3,0-0.5,0.1-0.7,0.2c-0.2,0.1-0.2,0.3-0.2,0.5
			c0,0.2,0.1,0.4,0.3,0.5c0.2,0.1,0.5,0.3,0.9,0.4c0.7,0.2,1.2,0.5,1.5,0.8c0.3,0.3,0.5,0.7,0.5,1.2c0,0.5-0.2,0.9-0.6,1.2
			c-0.4,0.3-0.9,0.4-1.6,0.4c-0.5,0-0.9-0.1-1.2-0.3c-0.4-0.2-0.7-0.4-0.9-0.7c-0.2-0.3-0.3-0.6-0.3-1h1.2c0,0.7,0.4,1,1.2,1
			c0.3,0,0.5-0.1,0.7-0.2C105.4,17.9,105.5,17.7,105.5,17.5z"/>
	</g>
</g>
</svg>
