<?xml version="1.0" encoding="utf-8"?>
<!-- Generator: Adobe Illustrator 28.2.0, SVG Export Plug-In . SVG Version: 6.00 Build 0)  -->
<svg version="1.1" id="Layer_1" xmlns="http://www.w3.org/2000/svg" xmlns:xlink="http://www.w3.org/1999/xlink" x="0px" y="0px"
	 viewBox="0 0 25 23.4" style="enable-background:new 0 0 25 23.4;" xml:space="preserve">
<style type="text/css">
	.st0{fill:url(#SVGID_1_);}
	.st1{fill:#E1F6FD;}
	.st2{fill:url(#SVGID_00000172436336270893404510000005544988029361922488_);}
</style>
<g>
	<linearGradient id="SVGID_1_" gradientUnits="userSpaceOnUse" x1="12.5" y1="1.0212" x2="12.5" y2="22.3952">
		<stop  offset="0" style="stop-color:#52C7F5"/>
		<stop  offset="0.1996" style="stop-color:#48BEEE"/>
		<stop  offset="0.5351" style="stop-color:#2EA6DD"/>
		<stop  offset="0.963" style="stop-color:#0480C0"/>
		<stop  offset="1" style="stop-color:#007CBD"/>
	</linearGradient>
	<path class="st0" d="M13.6,3.5v7v0.9l0.6,0.7l6.4,7.8H4.5l6.4-7.8l0.6-0.7v-0.9v-7H13.6 M17.2,1H7.8C7.4,1,7.1,1.1,6.9,1.4
		C6.7,1.6,6.6,1.9,6.6,2.2c0,0.3,0.1,0.6,0.3,0.8c0.2,0.2,0.5,0.3,0.8,0.3h1.2v7.1l-6.6,8C1.7,19.3,1.6,20.1,2,21
		c0.4,0.9,1.1,1.4,2.2,1.4h16.6c1,0,1.7-0.5,2.2-1.4c0.4-0.9,0.3-1.7-0.3-2.5l-6.6-8V3.4h1.2c0.3,0,0.6-0.1,0.8-0.3
		c0.2-0.2,0.3-0.5,0.3-0.8c0-0.3-0.1-0.6-0.3-0.8C17.9,1.1,17.6,1,17.2,1L17.2,1z"/>
	<g>
		<path class="st1" d="M13.5,17.5c0-0.2-0.1-0.4-0.2-0.5c-0.2-0.1-0.5-0.3-0.9-0.4c-0.4-0.1-0.8-0.3-1-0.4c-0.7-0.4-1-0.9-1-1.5
			c0-0.3,0.1-0.6,0.3-0.9c0.2-0.3,0.4-0.4,0.8-0.6c0.3-0.1,0.7-0.2,1.1-0.2c0.4,0,0.8,0.1,1.1,0.2s0.6,0.4,0.8,0.6
			c0.2,0.3,0.3,0.6,0.3,1h-1.2c0-0.3-0.1-0.5-0.3-0.6c-0.2-0.2-0.4-0.2-0.7-0.2c-0.3,0-0.5,0.1-0.7,0.2c-0.2,0.1-0.2,0.3-0.2,0.5
			c0,0.2,0.1,0.4,0.3,0.5c0.2,0.1,0.5,0.3,0.9,0.4c0.7,0.2,1.2,0.5,1.5,0.8c0.3,0.3,0.5,0.7,0.5,1.2c0,0.5-0.2,0.9-0.6,1.2
			c-0.4,0.3-0.9,0.4-1.6,0.4c-0.5,0-0.9-0.1-1.2-0.3c-0.4-0.2-0.7-0.4-0.9-0.7c-0.2-0.3-0.3-0.6-0.3-1h1.2c0,0.7,0.4,1,1.2,1
			c0.3,0,0.5-0.1,0.7-0.2C13.5,17.9,13.5,17.7,13.5,17.5z"/>
	</g>
</g>
<g>
	
		<linearGradient id="SVGID_00000081631273374198118890000015953161161502319517_" gradientUnits="userSpaceOnUse" x1="12.5" y1="1.0212" x2="12.5" y2="22.3952">
		<stop  offset="0" style="stop-color:#52C7F5"/>
		<stop  offset="0.1996" style="stop-color:#48BEEE"/>
		<stop  offset="0.5351" style="stop-color:#2EA6DD"/>
		<stop  offset="0.963" style="stop-color:#0480C0"/>
		<stop  offset="1" style="stop-color:#007CBD"/>
	</linearGradient>
	<path style="fill:url(#SVGID_00000081631273374198118890000015953161161502319517_);" d="M13.6,3.5v7v0.9l0.6,0.7l6.4,7.8H4.5
		l6.4-7.8l0.6-0.7v-0.9v-7H13.6 M17.2,1H7.8C7.4,1,7.1,1.1,6.9,1.4C6.7,1.6,6.6,1.9,6.6,2.2c0,0.3,0.1,0.6,0.3,0.8
		c0.2,0.2,0.5,0.3,0.8,0.3h1.2v7.1l-6.6,8C1.7,19.3,1.6,20.1,2,21c0.4,0.9,1.1,1.4,2.2,1.4h16.6c1,0,1.7-0.5,2.2-1.4
		c0.4-0.9,0.3-1.7-0.3-2.5l-6.6-8V3.4h1.2c0.3,0,0.6-0.1,0.8-0.3c0.2-0.2,0.3-0.5,0.3-0.8c0-0.3-0.1-0.6-0.3-0.8
		C17.9,1.1,17.6,1,17.2,1L17.2,1z"/>
	<g>
		<path class="st1" d="M13.5,17.5c0-0.2-0.1-0.4-0.2-0.5c-0.2-0.1-0.5-0.3-0.9-0.4c-0.4-0.1-0.8-0.3-1-0.4c-0.7-0.4-1-0.9-1-1.5
			c0-0.3,0.1-0.6,0.3-0.9c0.2-0.3,0.4-0.4,0.8-0.6c0.3-0.1,0.7-0.2,1.1-0.2c0.4,0,0.8,0.1,1.1,0.2s0.6,0.4,0.8,0.6
			c0.2,0.3,0.3,0.6,0.3,1h-1.2c0-0.3-0.1-0.5-0.3-0.6c-0.2-0.2-0.4-0.2-0.7-0.2c-0.3,0-0.5,0.1-0.7,0.2c-0.2,0.1-0.2,0.3-0.2,0.5
			c0,0.2,0.1,0.4,0.3,0.5c0.2,0.1,0.5,0.3,0.9,0.4c0.7,0.2,1.2,0.5,1.5,0.8c0.3,0.3,0.5,0.7,0.5,1.2c0,0.5-0.2,0.9-0.6,1.2
			c-0.4,0.3-0.9,0.4-1.6,0.4c-0.5,0-0.9-0.1-1.2-0.3c-0.4-0.2-0.7-0.4-0.9-0.7c-0.2-0.3-0.3-0.6-0.3-1h1.2c0,0.7,0.4,1,1.2,1
			c0.3,0,0.5-0.1,0.7-0.2C13.5,17.9,13.5,17.7,13.5,17.5z"/>
	</g>
</g>
</svg>
